<svg width="16" height="16" viewBox="0 0 16 16" fill="none" xmlns="http://www.w3.org/2000/svg">
<mask id="mask0_14381_13" style="mask-type:alpha" maskUnits="userSpaceOnUse" x="0" y="0" width="16" height="16">
<rect width="16" height="16" fill="#D9D9D9"/>
</mask>
<g mask="url(#mask0_14381_13)">
<path d="M7.01881 12.3269L10.7163 7.84317H8.02608L8.51583 4.0017L5.19316 8.8124H7.51838L7.01881 12.3269ZM6.22355 9.93887H4.2009C3.95455 9.93887 3.77545 9.83103 3.66358 9.61537C3.55171 9.3997 3.56729 9.18688 3.71031 8.97692L8.83505 1.55775C8.90911 1.45519 9.01082 1.38148 9.14016 1.3366C9.26951 1.29173 9.39515 1.29579 9.51708 1.34878C9.63901 1.39893 9.73716 1.48274 9.81151 1.60023C9.88587 1.71773 9.91778 1.84032 9.90725 1.968L9.30511 6.7167H11.806C12.0707 6.7167 12.2589 6.83529 12.3703 7.07247C12.4818 7.30963 12.4527 7.5295 12.2829 7.73207L6.67053 14.5072C6.5798 14.6082 6.47243 14.6753 6.34843 14.7086C6.22443 14.7419 6.10075 14.7262 5.97738 14.6617C5.85118 14.6 5.7603 14.5148 5.70475 14.406C5.64919 14.2973 5.62896 14.1755 5.64406 14.0406L6.22355 9.93887Z" fill="white"/>
</g>
</svg>
